<svg xmlns="http://www.w3.org/2000/svg" version="1.1" width="600px" height="600px" viewBox="0 0 200 200" style="overflow:hidden!important;"><defs id="SvgjsDefs3072"></defs><g id="svga-group-wrapper"><g id="svga-group-backs-single"><path id="SvgjsPath3520" d="M0 0h200v200H0V0z" fill="#ecf0f1" stroke-width="none" opacity="1"></path></g><g id="svga-group-humanwrap-move" transform="matrix(1,0,0,1,0,0)"><g id="svga-group-humanwrap" transform="matrix(1,0,0,1,0,0)"><g id="svga-group-hair-back-move" transform="matrix(1,0,0,1,0,0)"><g id="svga-group-hair-back" transform="matrix(1,0,0,1,0,0)"></g></g><g id="svga-group-humanbody-back"><path id="SvgjsPath3473" d="M166.5 181.1c-10.9-6.6-27.6-8.4-35-12.1-4.9-2.5-9.1-4.7-8.9-17.8s1.9-42.4 1.9-42.4H75.4s1.6 29.4 1.9 42.4-4.2 15.6-8.9 17.8c-7.4 3.5-24.1 5.4-35 12.1-10.8 6.6-10 18.9-10 18.9v19.7h153.3V200c-.1 0 .7-12.3-10.2-18.9z" fill="#f0c7b1" stroke-width="none" opacity="1" stroke="none"></path></g><g id="svga-group-chinshadow-single"><path id="SvgjsPath3878" d="M77.2 155.9c6.9 8.3 13.3 15.4 17.2 14.8 0 0 4.4-.9 5.6-.9s5.6 1 5.6 1c3.9.6 10.2-6.5 17.2-14.8-.1-1.4-.2-3-.2-4.8.2-13.1 1.9-42.4 1.9-42.4H75.4s1.6 29.4 1.9 42.4c0 1.7 0 3.3-.1 4.7z" fill="#d19271" stroke-width="none" opacity="0.65" stroke="none"></path></g><g id="svga-group-humanbody-front"><path id="SvgjsPath3474" d="M78.7 156.8c.5 4.8 1.7 9.4 3.1 13.9.8 2.3 1.6 4.6 2.6 6.9.8 2 1.7 4.2 3.1 5.9.3.4 1 0 .9-.5-.5-2.2-1.6-4.3-2.4-6.4-.9-2.2-1.7-4.4-2.5-6.6-1.5-4.4-2.8-8.9-4.1-13.3-.2-.4-.8-.3-.7.1zm41.3-1c-1.3 8.2-3.9 16.1-5.4 24.2-.1.4.4.5.6.2 3.1-7.7 4.1-16.1 5.1-24.3-.1-.2-.3-.2-.3-.1zm-25.8 11.9c-.9 3.6 1.9 8.6 6.2 7.6.5-.1.4-.8 0-1-1.4-.5-2.9-.9-3.9-2.1-1.1-1.2-1.5-2.9-1.4-4.5 0-.4-.8-.5-.9 0z" fill="#d19271" stroke-width="none" opacity="1" stroke="none"></path><path id="SvgjsPath3475" d="M177.3 219.7c-.1-6.6-.3-13.1-.3-19.7l-.3-.3c.1 0 .1 0 .2.1s.1.2.1.1v-1.4c0-.5-.1-.9-.1-1.4-.1-.9-.3-1.9-.5-2.8-.5-1.8-1.1-3.6-2-5.3-1.7-3.4-4.4-6.2-7.7-8.1-3.6-2.2-7.6-3.8-11.6-5.1-4-1.3-8.1-2.4-12.1-3.5-4-1.2-8.1-2.2-11.8-4.2-1.9-1-3.6-2.1-4.8-3.6-1.2-1.6-1.9-3.5-2.3-5.5-.8-4-.4-8.2-.3-12.4l.7-12.6 1.5-25.2.1-1.4h-1.4c-8.2 0-16.4 0-24.6.1l-24.6.3h-.9l.1.9c.8 11.9 1.6 23.8 2.1 35.7.1 3 .3 6 .2 8.9-.1 2.9-.4 5.9-1.6 8.6-.6 1.3-1.4 2.5-2.4 3.5s-2.3 1.8-3.6 2.4c-2.6 1.3-5.4 2.2-8.3 3-5.8 1.5-11.6 2.8-17.3 4.7-2.8.9-5.7 2-8.4 3.4-1.3.7-2.7 1.4-4 2.4-1.3.9-2.4 1.9-3.5 3.1-2.1 2.3-3.6 5.2-4.5 8.1-.5 1.5-.8 3-1 4.6-.1.8-.1 1.6-.1 2.4v2.3l-.2 17.9v1.3h1.4l38.3.2c12.8.1 25.5.1 38.3 0 12.8-.1 25.6-.1 38.3-.3 12.8-.2 25.6-.5 38.3-.7h.6v-.5zm-77.2-1.6H61.8l-37 .2-.1-16.6v-2.2c0-.7 0-1.4.1-2.1.1-1.4.4-2.8.8-4.2.8-2.7 2.1-5.3 3.9-7.5.9-1.1 2-2.1 3.1-2.9 1.1-.9 2.4-1.6 3.7-2.3 2.6-1.4 5.3-2.5 8.1-3.5 5.6-2 11.4-3.4 17.1-5.1 2.9-.8 5.8-1.7 8.5-3.1 1.3-.7 2.7-1.5 3.8-2.6 1.1-1.1 2-2.4 2.6-3.9 1.2-2.9 1.5-5.9 1.6-8.9 0-3-.1-6-.2-9l-1.3-34.8 23.5.4c7.7.1 15.4.1 23.1.1-.4 7.9-.8 15.9-1.1 23.8-.2 4.2-.2 8.4-.3 12.6 0 4.2-.2 8.5.8 12.8.5 2.1 1.3 4.2 2.8 6 1.4 1.7 3.4 2.9 5.3 3.8 3.9 1.9 8 2.8 12.1 3.8s8.2 2 12.2 3.3c4 1.3 7.9 2.8 11.5 5 3.2 1.9 5.8 4.7 7.5 8 .9 1.6 1.5 3.4 1.9 5.2.2.9.4 1.8.4 2.7.1.5.1.9.1 1.4V200l-.3 19c-12.6-.2-25.1-.5-37.7-.7-12.7-.1-25.5-.1-38.2-.2z" fill="#c27b55" stroke-width="none" opacity="1" stroke="none"></path></g><g id="svga-group-clothes-single"><path id="SvgjsPath6653" d="M179.3 220.1c0-17.5-1.6-26.7-1.6-26.7-3.2-15.2-21.5-18.1-30.1-20.5-2.8-.8-7.9-2.4-7.9-2.4-4.8 5.3-10.2 17.8-16.2 23.3-7.5 7-14.9 13-21.8 18.1-6.4-4-13.8-9.3-21.4-16.1-7.7-6.9-13.9-20.7-18.6-26.7-3.1.5-6.3 1.8-10 2.6-8.7 1.9-26.5 7.6-29.5 21.6 0 0-1.6 9.2-1.6 26.7h158.7z" fill="#ededed" stroke-width="none" opacity="1"></path><path id="SvgjsPath6654" d="m72.9 159.9.7-8.2-14.3 9-9.1 6.8 2.1 1-27.1 9.9-3.3.8-5 19.8v20.9h59.9L72 175.8l.9-15.9zm105.2 19.5-3.3-.8-27.1-9.9 2.1-1-9.1-6.8-13.8-9.3.2 8.5.8 16.1-4.8 44.1H183v-20.9l-4.9-20z" fill="#386e77" stroke-width="none" opacity="1"></path><path id="SvgjsPath6655" d="M148.5 181.7c-2-1.7-4-3.5-6-5.2l-5.9-5.3c-2-1.7-4-3.5-6-5.3 1.7 2 3.6 3.9 5.4 5.9 1.8 1.9 3.7 3.8 5.6 5.7 1.9 1.9 3.8 3.7 5.8 5.5 1.6 1.5 3.3 3 5.1 4.4-2.3 1.6-4.6 3.3-6.8 5-2.6 2-5.1 4-7.6 6.2-1.2 1.1-2.4 2.2-3.5 3.6-.3.3-.5.9-.6 1.3l-.4 1.1-.8 2.3c-1.1 3.1-2.1 6.1-3.1 9.2 1.4-2.9 2.8-5.9 4.1-8.8l1-2.2.5-1.1c.2-.4.3-.6.5-.9.9-1.1 2.2-2.2 3.4-3.2 2.5-2.1 5.1-3.9 7.6-5.9l7.8-5.7.2-.2c.3-.4.2-1.1-.2-1.4-2-1.6-4.1-3.3-6.1-5zm11.6-6.8c-3.6-1.2-7.3-2.3-11-3.2 3.5 1.6 7.1 2.9 10.7 4.1 3.6 1.2 7.3 2.3 11 3.2-3.5-1.6-7-2.9-10.7-4.1zm12.6 7.8c-1 .7-2.1 1.4-2.7 2.8-1.1 2.3-1.7 4.6-2.4 6.9-.6 2.3-1.1 4.7-1.5 7.1-.4 2.4-.7 4.8-.6 7.2.7-2.3 1.5-4.6 2.1-6.9.7-2.3 1.3-4.6 1.9-6.9l.9-3.5c.3-1.1.6-2.3 1-3.4.2-1 1.1-1.8 1.9-2.6.8-.8 1.8-1.5 2.8-2.2-1.2.3-2.3.8-3.4 1.5zm-36.1-22 4.6 3.1c1.4 1 2.8 1.9 4 3.1-.6.4-1.3.7-1.9 1.1-.8.4-1.5.9-2.2 1.3.8-.3 1.6-.7 2.4-1 .8-.3 1.6-.7 2.4-1.1h.1c.1-.1.1-.3 0-.4-1.2-1.5-2.7-2.6-4.2-3.7s-3-2.1-4.6-3.2c-3.1-2.1-6.2-4-9.1-6.3 1.2 1.4 2.6 2.6 4.1 3.8 1.4 1.2 2.9 2.2 4.4 3.3zM72 190.8l-.9-6.3-.9-6.3c-.1-.9 0-2 .1-3.1l.3-3.2c.2-2.1.4-4.2.5-6.4-.6 2.1-1 4.2-1.4 6.2l-.6 3.2c-.2 1.1-.4 2.1-.3 3.3.3 4.4.8 8.5 1.3 12.8.6 4.2 1.2 8.4 1.9 12.6.7 4.2 1.5 8.4 2.5 12.6-.2-4.3-.5-8.5-.9-12.8-.5-4.2-1.1-8.4-1.6-12.6z" fill="#4d7e86" stroke-width="none" opacity="1"></path><path id="SvgjsPath6656" d="M183.4 199.2c0-.1 0-.1 0 0-.8-3.4-1.5-6.7-2.3-10.1l-2.3-10c-.1-.3-.3-.5-.5-.5l-3.2-.9c-4.5-1.7-9-3.4-13.5-5-3.9-1.4-7.9-2.9-11.9-4.2l.4-.2c.4-.2.5-.6.3-1-.1-.1-.1-.2-.2-.3l-5.7-4.1c-1.9-1.4-3.8-2.8-5.8-4-2-1.3-4.1-2.5-6.1-3.8l-5.8-3.7c-1.1-.4-3.3-1-3.3-1s-.3 2.1-.2 4.6c.2 2.6.5 5.7 1.8 8.1.9 1.6 1.4 2.1 1.7 2.2l.3 10.7-1.7 13.7c-.9 1.1-1.8 2.2-2.8 3.2-6.7 6.3-13.7 12.4-21.1 18-4-2.5-7.9-5.1-11.7-7.9-2-1.5-3.9-3-5.8-4.6s-3.8-3.1-5.5-4.9c-1.6-1.7-3-3.5-4.3-5.4L72.8 176l.3-10.7c.2-.2.9-.8 1.6-1.9.9-1.5 2.4-4.5 2.6-6.9.2-2.3.3-5.4.3-6.2 0 0-3.4.5-4.5 1l-5.8 3.7c-2 1.2-4 2.5-6.1 3.8s-3.9 2.7-5.8 4l-5.7 4.1c-.1.1-.2.2-.2.3-.2.4 0 .8.3 1l.4.2c-4 1.4-7.9 2.8-11.9 4.2-4.5 1.6-9 3.3-13.5 5l-3.2.9c-.2.1-.5.3-.5.5l-2.3 10c-.8 3.3-1.5 6.6-2.3 10v.1c0 3.5.1 7 .1 10.5l-.1 10.5c0 .2.2 2.1.4 2.1l166.1-.6c.2 0 .4-1.3.4-1.5l-.1-10.5c.1-3.4.1-6.9.1-10.4zM17.3 219.7l-.1-10.1c0-3.5 0-6.9.1-10.4.9-3.3 1.8-6.6 2.6-9.8l2.5-9.4 2.3-.5c1.4.9 2.8 1.9 4.1 2.9.4.3.7.6 1 .9.2.2.2.3.3.4l.3.6c.3.8.7 1.7 1 2.6.6 1.8 1.1 3.6 1.6 5.4l1.5 5.4.7 2.7c.2.9.4 1.8.5 2.7.3 1.8.6 3.7.9 5.6.5 3.6 1.1 7.2 1.8 10.8l-21.1.2zm29.6-.4-8.2.1c0-3.6-.1-7.3-.3-10.9-.1-1.9-.3-3.8-.5-5.7-.1-.9-.3-2-.5-2.9l-.7-2.8c-1-3.7-2.2-7.3-3.6-10.8-.4-.9-.8-1.8-1.3-2.6l-.4-.6c-.2-.2-.4-.5-.6-.6-.4-.3-.8-.6-1.2-.8-1.4-.8-2.9-1.5-4.4-2.1l.4-.1h.1c4.5-1.6 9.1-3.2 13.6-4.9s9-3.3 13.5-5.1c.2-.1.3-.2.4-.3.8.3 1.6.5 2.4.8 1.5.5 2.9.9 4.4 1.4-1.5 1.3-3 2.6-4.6 3.9l-7 6.1c-1.2 1-2.3 2.1-3.5 3L41 187l-.2.2c-.3.4-.2 1.1.2 1.4l17.7 13.3c.7.6 1.5 1.1 2.2 1.7l.3.2.1.1.2.2.2.3.7 1.2 2.8 4.8c1.7 2.9 3.4 5.8 5.1 8.6-7.9.1-15.6.2-23.4.3zm23.4-.2c-1.4-3.1-2.9-6.1-4.3-9.1l-2.5-5-.6-1.2-.2-.3c0-.1-.1-.2-.2-.4-.1-.1-.2-.3-.3-.4l-.3-.2-2.1-1.8c-2.9-2.4-5.8-4.6-8.7-6.9-2.6-2-5.2-4-7.8-5.9l2.7-2c1.3-1 2.3-2.1 3.5-3.1 2.3-2.1 4.5-4.2 6.8-6.4 2.2-2.1 4.5-4.3 6.7-6.5s4.4-4.4 6.5-6.6c-2.4 1.9-4.8 4-7.1 6-.8.7-1.6 1.4-2.3 2-.6-.4-1.2-.7-1.8-1-.8-.4-1.6-.8-2.4-1.1-1-.4-2.1-.8-3.1-1.1l-.9-.4 4.5-3.5c1.8-1.4 3.7-2.9 5.5-4.1 1.8-1.3 3.7-2.7 5.6-4l5.8-4.1c-.1 2.1-.3 4.1-.4 6.1-.1 1.9-.3 4-.4 6.1L71.4 176v.1l2.1 22.1c.7 7 1.4 13.9 2.2 20.9h-5.4zm29.1-.3c-7.2-.1-14.4-.1-21.7-.1-.7-6.9-1.5-13.8-2.3-20.6l-1-7.9c1 1.4 2.2 2.8 3.3 4.1 1.7 1.9 3.6 3.5 5.5 5.1s3.8 3.2 5.8 4.7c3.9 3.1 8 6 12.1 8.7.3.2.7.2 1 0 7.7-5.6 15.2-11.5 22.2-17.9.2-.1.3-.3.5-.5l-.4 3.7c-.8 7-1.6 14.1-2.3 21.1l-22.7-.4zm24.9.2c.8-6.9 1.5-13.9 2.2-20.9l2.1-22.1v-.1l-.9-12.3c-.2-2.1-.3-4.1-.4-6.1s-.3-4-.4-6.1l5.8 4.1c1.9 1.4 3.7 2.7 5.6 4 1.9 1.2 3.7 2.7 5.5 4.1l4.6 3.5-.9.4c-1 .4-2.1.7-3.1 1.1-.8.3-1.6.7-2.4 1.1-.6.3-1.2.6-1.8 1-.8-.7-1.6-1.4-2.3-2-2.4-2-4.7-4-7.1-6 2.1 2.2 4.4 4.4 6.5 6.6 2.2 2.2 4.4 4.4 6.7 6.5 2.2 2.1 4.5 4.3 6.8 6.4 1.2 1.1 2.2 2.1 3.5 3.1l2.7 2c-2.6 1.9-5.2 3.9-7.8 5.9-2.9 2.3-5.8 4.5-8.7 6.9l-2.1 1.8-.3.2c-.1.1-.2.3-.4.4-.1.2-.2.3-.2.4l-.2.3-.6 1.2-2.4 5c-1.4 3-2.9 6.1-4.3 9.1-2.1.6-3.9.6-5.7.5zm28.8.3c-7.8-.1-15.5-.1-23.2-.2 1.7-2.9 3.4-5.7 5.1-8.6l2.8-4.8.7-1.2.2-.3c.1-.1.1-.2.2-.2s.1 0 .1-.1l.3-.2c.7-.6 1.4-1.1 2.1-1.7l17.7-13.3c.4-.3.5-.9.2-1.4l-.2-.2-3.7-2.8c-1.1-.9-2.3-2-3.5-3l-7-6.1c-1.5-1.3-3-2.6-4.6-3.9 1.5-.5 2.9-.9 4.4-1.4.8-.2 1.6-.5 2.4-.8.1.1.2.3.4.3l13.5 5.1c4.5 1.7 9 3.3 13.6 4.9h.1l.4.1c-1.5.6-2.9 1.3-4.4 2.1-.4.2-.8.5-1.2.8-.2.1-.4.4-.6.6l-.4.6c-.5.9-.9 1.8-1.3 2.6-1.5 3.5-2.6 7.2-3.6 10.8l-.7 2.8c-.2.9-.4 1.9-.5 2.9-.2 1.9-.4 3.8-.5 5.7-.3 3.6-.4 7.3-.4 10.9h-8.4zm29.6.4-21.3-.3c.7-3.6 1.3-7.2 1.8-10.8.3-1.9.5-3.7.9-5.6.2-.9.3-1.8.6-2.7l.7-2.7 1.5-5.4c.5-1.8 1.1-3.6 1.6-5.4.3-.9.6-1.8 1-2.6l.3-.6c.1-.1.1-.3.3-.4.3-.3.7-.6 1-.9 1.3-1 2.7-1.9 4.1-2.9l2.3.5 2.6 9.4c.9 3.3 1.8 6.6 2.6 9.8.1 3.5.1 6.9.1 10.4l-.1 10.2z" fill="#184f58" stroke-width="none" opacity="1"></path></g><g id="svga-group-head" transform="matrix(1,0,0,1,0,0)"><g id="svga-group-ears-left-move" transform="matrix(1,0,0,1,0,0)"><g id="svga-group-ears-left" transform="matrix(1,0,0,1,0,0)"><path id="SvgjsPath4685" d="M62.2 95.2s-4.4-4.7-5.8-6.2-3.1-4.7-5-4.1c-1.9.5-1.2 2.7-1.3 5.8-.1 3.1.3 9.1 2.2 12.4s2.9 4.5 3.5 8 2.8 4.2 4.1 3.2 4.3-7 4.4-10.2c0-3.2-1.3-7.6-2.1-8.9z" fill="#f0c7b1" stroke-width="none" opacity="1"></path><path id="SvgjsPath4686" d="M63.1 97.3c.3.8.5 1.5.7 2.3.4 1.6.7 3.2.7 4.9 0 .8-.2 1.6-.3 2.3l-.6 2.1c-.5 1.3-1.1 2.6-1.7 3.8-.3.6-.7 1.1-1.1 1.7-.2.2-.5.5-.8.7s-.6.3-.9.3c-.7.1-1.4-.1-2-.7s-1.1-1.4-1.4-2.3l-.2-.7-.1-.7c-.1-.4-.1-.8-.2-1.1-.2-.7-.4-1.5-.6-2.1-.5-1.4-1.3-2.7-2.1-4-.4-.6-.8-1.4-1-2.2-.3-.8-.5-1.6-.7-2.4-.3-1.6-.6-3.2-.7-4.8-.2-1.6-.2-3.2-.2-4.7 0-.8-.1-1.5-.1-2.4 0-.4 0-.8.1-1.3.1-.4.2-.9.5-1.2.2-.3.5-.5.8-.6s.6-.2 1-.2c.7.1 1.3.5 1.9 1 1.1 1 1.9 2.4 2.7 3.5 1.9 2.2 3.7 4.4 5.6 6.5.1.8.4 1.6.7 2.3zm-7-7.9c-1.1-1-1.9-2.3-2.8-3.1-.5-.4-.9-.7-1.4-.8-.4 0-.9.1-1.2.4s-.4.9-.4 1.7v2.3c0 .8-.1 1.5-.1 2.3s0 1.5.1 2.3c.1 1.6.3 3.1.7 4.7.4 1.5 1 3 1.8 4.2.8 1.3 1.7 2.5 2.4 4 .3.8.6 1.6.8 2.4l.3 1.2.1.5.2.5c.2.6.6 1.1 1 1.4s.9.4 1.3.3c.2 0 .4-.1.6-.2.2-.1.3-.3.5-.5.3-.4.7-1 1-1.5.6-1.1 1.2-2.3 1.7-3.5s1-2.5 1.2-3.8c.2-1.4 0-3-.2-4.5-.1-.8-.3-1.6-.5-2.3-.2-.8-.5-1.5-.9-2.1-2.2-2.1-4.2-4-6.2-5.9z" fill="#e1ac8f" stroke-width="none" opacity="1"></path><path id="SvgjsPath4687" d="M50.4 89.6c.5-1.9 2.1-1 3 .4 1.9 2.6 3.2 6.6 3.6 10 0 .1-.1.2-.1.1-.1.1-.2.1-.2-.1-1.2-.5-1.6-.2-1.2.8 0 .3.1.6.3.9.2.5.6 1 .9 1.5.5.8 1.2 1.5 1.7 2.3.2.3 0 .6-.2.4-1.4-1-3.9-4.3-3.2-6.6.3-.8 1-1.1 1.5-.7-1.1-3.6-4-12-5.8-8.8-.2.1-.3-.1-.3-.2z" fill="#d19271" stroke-width="none" opacity="1"></path><path id="SvgjsPath4688" d="M53.3 90.1c-1 2-1.4 4.4-.9 7.1.3 1.5 2.9 9.5 4.9 8.4.2-.1.4.3.2.5-2 1.8-4.2-4.5-4.9-6.5-1.1-3.4-1.4-7.5.5-9.7.1-.1.2 0 .2.2z" fill="#d19271" stroke-width="none" opacity="1"></path></g></g><g id="svga-group-ears-right-move" transform="matrix(1,0,0,1,0,0)"><g id="svga-group-ears-right" transform="matrix(1,0,0,1,0,0)"><path id="SvgjsPath4689" d="M138.08 95.16s4.4-4.7 5.8-6.2 3.1-4.7 5-4.1c1.9.5 1.2 2.7 1.3 5.8.1 3.1-.3 9.1-2.2 12.4s-2.9 4.5-3.5 8-2.8 4.2-4.1 3.2-4.3-7-4.4-10.2c0-3.2 1.3-7.6 2.1-8.9z" fill="#f0c7b1" stroke-width="none" opacity="1"></path><path id="SvgjsPath4690" d="M137.9 95.1c1.9-2 3.8-4.3 5.6-6.5.9-1 1.6-2.4 2.7-3.5.5-.5 1.2-1 1.9-1 .3 0 .7 0 1 .2.3.1.6.3.8.6.2.3.4.8.5 1.2.1.4.1.9.1 1.3 0 .8-.1 1.6-.1 2.4 0 1.5-.1 3.2-.2 4.7-.1 1.6-.4 3.2-.7 4.8-.2.8-.4 1.6-.7 2.4s-.6 1.5-1 2.2c-.7 1.3-1.5 2.7-2.1 4-.3.7-.5 1.4-.6 2.1-.1.4-.1.7-.2 1.1l-.1.7-.2.7c-.3.9-.8 1.7-1.4 2.3-.6.5-1.4.8-2 .7-.3 0-.6-.1-.9-.3-.3-.2-.6-.5-.8-.7-.4-.5-.8-1.1-1.1-1.7-.6-1.2-1.2-2.4-1.7-3.8-.2-.7-.5-1.4-.6-2.1-.2-.7-.3-1.5-.3-2.3 0-1.7.3-3.3.7-4.9.2-.8.4-1.6.7-2.3 0-.8.3-1.6.7-2.3zm.1.1c-.4.6-.6 1.4-.9 2.1-.2.8-.4 1.5-.5 2.3-.3 1.5-.4 3.1-.2 4.5s.7 2.6 1.2 3.8c.5 1.2 1.1 2.4 1.7 3.5.3.5.6 1.1 1 1.5.2.2.3.4.5.5s.4.2.6.2c.4.1.9 0 1.3-.3s.7-.8 1-1.4l.2-.5.1-.5.3-1.2c.2-.8.5-1.6.8-2.4.7-1.5 1.6-2.8 2.4-4 .8-1.2 1.4-2.6 1.8-4.2.4-1.5.6-3.1.7-4.7.1-.8.1-1.6.1-2.3 0-.8-.1-1.5-.1-2.3v-2.3c0-.7-.1-1.4-.4-1.7-.3-.3-.8-.5-1.2-.4-.4 0-.9.4-1.4.8-.9.8-1.8 2.1-2.8 3.1-2.3 2-4.3 3.9-6.2 5.9z" fill="#e1ac8f" stroke-width="none" opacity="1"></path><path id="SvgjsPath4691" d="M149.6 89.6c-.5-1.9-2.1-1-3 .4-1.9 2.6-3.2 6.6-3.6 10 0 .1.1.2.1.1.1.1.2.1.2-.1 1.2-.5 1.6-.2 1.2.8 0 .3-.1.6-.3.9-.2.5-.6 1-.9 1.5-.5.8-1.2 1.5-1.7 2.3-.2.3 0 .6.2.4 1.4-1 3.9-4.3 3.2-6.6-.3-.8-1-1.1-1.5-.7 1.1-3.6 4-12 5.8-8.8.2.1.3-.1.3-.2z" fill="#d19271" stroke-width="none" opacity="1"></path><path id="SvgjsPath4692" d="M146.7 90.1c1 2 1.4 4.4.9 7.1-.3 1.5-2.9 9.5-4.9 8.4-.2-.1-.4.3-.2.5 2 1.8 4.2-4.5 4.9-6.5 1.1-3.4 1.4-7.5-.5-9.7-.1-.1-.2 0-.2.2z" fill="#d19271" stroke-width="none" opacity="1"></path></g></g><g id="svga-group-faceshape-wrap" transform="matrix(1,0,0,1,0,0)"><g id="svga-group-faceshape-single"><path id="SvgjsPath3867" d="M143.2 82v-.3c-1.3-29.9-20.7-46.4-43.2-46.4S58.1 51.7 56.8 81.7v.3c0 2 0 17.7 1.7 28.4 1.8 11.7 5.7 15.8 14.3 26.1s16.9 19.8 21.6 19.2c0 0 4.4-.9 5.6-.9s5.6.9 5.6.9c4.7.7 13.1-8.8 21.6-19.2s12.5-14.4 14.3-26.1c1.6-10.8 1.7-26.4 1.7-28.4z" fill="#f0c7b1" stroke-width="none" opacity="1" stroke="none"></path><path id="SvgjsPath3868" d="M105.6 155.7c4.7.7 13.1-8.8 21.6-19.2s12.5-14.4 14.3-26.1c1.6-10.8 1.7-26.4 1.7-28.4v-.3c-1.3-29.9-20.7-46.4-43.2-46.4S58.1 51.7 56.8 81.7v.3c0 2 0 17.7 1.7 28.4 1.8 11.7 5.7 15.8 14.3 26.1s16.9 19.8 21.6 19.2c0 0 4.4-.9 5.6-.9s5.6.9 5.6.9zm-10.5-2.9c-1.1.2-2.2.1-3.2-.5-2.9-1.6-5.8-5.1-7.1-6.5-3.2-3.4-6.3-6.1-9.4-9.8s-6.4-7.2-9.1-10.9c-2.8-3.7-4.7-7.8-5.7-12.3-1.1-4.5-1.7-9.3-2.1-14.1-.4-4.8-.7-9.6-.8-14.3-.2-9.5 1.8-19.1 6.7-27.3C69.1 49 76.9 43 85.5 40c13.2-4.2 22.5-1.8 26.9-.5 8.8 2.4 16.7 8.1 22.1 15.8s8.1 17.4 8.5 26.9c-.1 8.3-.6 16.7-1.9 24.9-.3 2.1-.7 4.1-1.2 6.1s-1.2 3.9-2 5.7c-1.6 3.6-4.1 6.8-6.8 9.9-1.3 1.6-8.2 9.5-8.2 9.5-2.7 3.1-5.4 5.4-8.2 8.3-1.4 1.5-5.7 5.5-6.5 5.9-2.1 1-4 .5-4 .5-1-.2-4.4-1.1-9.1-.2z" fill="#c27b55" stroke-width="none" opacity="1" stroke="none"></path></g></g><g id="svga-group-mouth-single-move" transform="matrix(1,0,0,1,0,0)"><g id="svga-group-mouth-single" transform="matrix(1,0,0,1,0,0)"><path id="SvgjsPath4597" d="M85.34 126.92s2.37-.51 5.3-1.54c2.87-1.01 6.09-2.05 8.83-2.14 3.98-.13 6.69.33 9.92 1.61 4.77 1.89 7.89 2.17 7.89 2.17s-2.81 2.71-10.17 4.41c-7.36 1.7-14.09.36-17.26-1.47-3.17-1.83-4.51-3.04-4.51-3.04z" fill="#da7c87" stroke-width="none" opacity="1" transform="translate(0 2)" stroke="none"></path><path id="SvgjsPath4598" d="M118.94 126.28c-.72.2-2.15 1.09-8.57.73-2.91-.16-5.81-.6-8.73-.65-2.85-.05-5.66.33-8.49.57-6.77.58-8.72-.58-9.3-.72-.16-.04-.27.19-.11.27 5.39 2.95 12.12.73 17.9.89 5.62.16 12.32 2.08 17.53-.92.27-.16.09-.26-.23-.17z" fill="#cb5f6c" stroke-width="none" opacity="1" transform="translate(0 2)" stroke="none"></path></g></g><g id="svga-group-eyes-left-move" transform="matrix(1,0,0,1,0,0)"><g id="svga-group-eyes-left" transform="matrix(1,0,0,1,0,0)"><g id="svga-group-eyesback-left"><path id="SvgjsPath5471" d="M89.9 97.6c0-.1-.5-2.9-2.5-4.8s-5.1-3.6-8.7-2.7c-3.5.9-5.3 2.1-7 4.3-1.6 2.2-1.7 3.4-1.7 3.4s3.4 1.1 7.6 1.1c4.1.1 9.6-.7 10.5-.9.9 0 1.8-.4 1.8-.4z" fill="#ffffff" stroke-width="none" opacity="1"></path></g><g id="svga-group-eyesiriswrapper-left" transform="matrix(1,0,0,1,0,0)"><g id="svga-group-eyesiriscontrol-left" transform="matrix(1,0,0,1,0,0)"><g id="svga-group-eyesiris-left" transform="matrix(1,0,0,1,0,0)"><path id="SvgjsPath5696" d="M80.1 88.1c3 0 5.5 2.4 5.5 5.5S83.1 99 80.1 99s-5.5-2.4-5.5-5.5 2.4-5.4 5.5-5.4z" fill="#681711" stroke-width="none" opacity="1" stroke="none"></path><path id="SvgjsPath5697" d="M80.1 99.3c-3.2 0-5.7-2.6-5.7-5.7 0-3.2 2.6-5.7 5.7-5.7 3.2 0 5.7 2.6 5.7 5.7s-2.6 5.7-5.7 5.7zm0-11c-2.9 0-5.2 2.3-5.2 5.2s2.3 5.2 5.2 5.2 5.2-2.3 5.2-5.2c-.1-2.8-2.4-5.2-5.2-5.2z" fill="#490500" stroke-width="none" opacity="1" stroke="none"></path><path id="SvgjsPath5698" d="M80.1 90.6c1.6 0 2.9 1.3 2.9 2.9s-1.3 2.9-2.9 2.9-2.9-1.3-2.9-2.9 1.2-2.9 2.9-2.9z" fill="#000000" stroke-width="none" opacity="1"></path><path id="SvgjsPath5699" d="M78.7 90.5c.6 0 1 .5 1 1s-.5 1-1 1-1-.5-1-1 .5-1 1-1zm3.4 4.7c.2 0 .4.2.4.4s-.2.4-.4.4-.4-.2-.4-.4.2-.4.4-.4z" fill="#ffffff" stroke-width="none" opacity="1"></path></g></g></g><g id="svga-group-eyesfront-left"><path id="SvgjsPath5479" d="M69.4 94.6c0 6.4 4.7 11.5 10.6 11.5s10.6-5.2 10.6-11.5S85.9 83.1 80 83.1s-10.6 5.1-10.6 11.5zm.7 3.3s.1-1.2 1.7-3.4c1.6-2.2 3.4-3.4 7-4.3s6.7.7 8.7 2.7c2 1.9 2.4 4.8 2.5 4.8 0 0-.9.3-1.8.5s-6.3 1-10.5.9c-4.2-.2-7.6-1.2-7.6-1.2z" fill="#f0c7b1" stroke-width="none" opacity="1"></path><path id="SvgjsPath5480" d="M90.1 96.2c-1.1-4.4-4.7-7.9-9.4-8.1-4.5-.2-8 2.5-9.9 6.5-.1.2-.3 0-.3-.1 1.4-4.4 5.9-7.3 10.5-6.8 4.7.5 8.3 3.9 9.1 8.5z" fill="#e1ac8f" stroke-width="none" opacity="1"></path><path id="SvgjsPath5481" d="M69.7 98.1c.1.2.3.3.4.2 2.7 1.2 6.5 1.2 9.3 1.2 3.4 0 7.1-.3 10.3-1.5.1.2.4.2.4-.1-.3-5-5.2-8.7-10-8.6-4.7.1-9.7 3.6-10.4 8.4-.1.1-.2.3 0 .4zm4 .2c-1.1-.2-2.1-.4-3.2-.5 2.1-3.8 4.6-7 9.3-7.3 4.9-.3 8.3 2.7 9.8 7-3.4.6-6.7 1.3-10.2 1.3-1.8-.1-3.8-.2-5.7-.5z" fill="#000000" stroke-width="none" opacity="1"></path></g></g></g><g id="svga-group-eyes-right-move" transform="matrix(1,0,0,1,0,0)"><g id="svga-group-eyes-right" transform="matrix(1,0,0,1,0,0)"><g id="svga-group-eyesback-right"><path id="SvgjsPath5472" d="M110.1 97.6c0-.1.5-2.9 2.5-4.8s5.1-3.6 8.7-2.7c3.5.9 5.3 2.1 7 4.3 1.6 2.2 1.7 3.4 1.7 3.4s-3.4 1.1-7.6 1.1c-4.1.1-9.6-.7-10.5-.9-.9 0-1.8-.4-1.8-.4z" fill="#ffffff" stroke-width="none" opacity="1"></path></g><g id="svga-group-eyesiriswrapper-right" transform="matrix(1,0,0,1,0,0)"><g id="svga-group-eyesiriscontrol-right" transform="matrix(1,0,0,1,0,0)"><g id="svga-group-eyesiris-right" transform="matrix(1,0,0,1,0,0)"><path id="SvgjsPath5700" d="M119.9 88.1c3 0 5.5 2.4 5.5 5.5S123 99 119.9 99s-5.5-2.4-5.5-5.5 2.5-5.4 5.5-5.4z" fill="#681711" stroke-width="none" opacity="1" stroke="none"></path><path id="SvgjsPath5701" d="M119.9 99.3c-3.2 0-5.7-2.6-5.7-5.7 0-3.2 2.6-5.7 5.7-5.7 3.2 0 5.7 2.6 5.7 5.7s-2.5 5.7-5.7 5.7zm0-11c-2.9 0-5.2 2.3-5.2 5.2s2.3 5.2 5.2 5.2 5.2-2.3 5.2-5.2c0-2.8-2.3-5.2-5.2-5.2z" fill="#490500" stroke-width="none" opacity="1" stroke="none"></path><path id="SvgjsPath5702" d="M119.9 90.6c1.6 0 2.9 1.3 2.9 2.9s-1.3 2.9-2.9 2.9-2.9-1.3-2.9-2.9 1.3-2.9 2.9-2.9z" fill="#000000" stroke-width="none" opacity="1"></path><path id="SvgjsPath5703" d="M118.6 90.5c.6 0 1 .5 1 1s-.5 1-1 1-1-.5-1-1 .5-1 1-1zm3.4 4.7c.2 0 .4.2.4.4s-.2.4-.4.4-.4-.2-.4-.4.2-.4.4-.4z" fill="#ffffff" stroke-width="none" opacity="1"></path></g></g></g><g id="svga-group-eyesfront-right"><path id="SvgjsPath5482" d="M120 83.1c-5.9 0-10.6 5.2-10.6 11.5s4.7 11.5 10.6 11.5 10.6-5.2 10.6-11.5-4.8-11.5-10.6-11.5zm2.3 15.9c-4.1.1-9.6-.7-10.5-.9-.9-.2-1.8-.5-1.8-.5 0-.1.5-2.9 2.5-4.8s5.1-3.6 8.7-2.7 5.3 2.1 7 4.3c1.6 2.2 1.7 3.4 1.7 3.4s-3.4 1.1-7.6 1.2z" fill="#f0c7b1" stroke-width="none" opacity="1"></path><path id="SvgjsPath5485" d="M109.9 96.2c1.1-4.4 4.7-7.9 9.4-8.1 4.5-.2 8 2.5 9.9 6.5.1.2.3 0 .3-.1-1.4-4.4-5.9-7.3-10.5-6.8-4.7.5-8.3 3.9-9.1 8.5z" fill="#e1ac8f" stroke-width="none" opacity="1"></path><path id="SvgjsPath5486" d="M130.3 97.7c-.7-4.8-5.8-8.3-10.4-8.4-4.8-.1-9.7 3.6-10 8.6 0 .2.3.3.4.1 3.3 1.1 6.9 1.5 10.3 1.5 2.8 0 6.6 0 9.3-1.2.2.1.4 0 .4-.2.2-.1.1-.3 0-.4zm-9.8 1c-3.5 0-6.8-.6-10.2-1.3 1.5-4.4 4.9-7.3 9.8-7 4.7.3 7.2 3.6 9.3 7.3-1.1.1-2.1.4-3.2.5-1.8.4-3.8.5-5.7.5z" fill="#000000" stroke-width="none" opacity="1"></path></g></g></g><g id="svga-group-facehighlight-single"></g><g id="svga-group-eyebrows-left-move" transform="matrix(1,0,0,1,0,0)"><g id="svga-group-eyebrows-left-rotate" transform="matrix(1,0,0,1,0,0)"><g id="svga-group-eyebrows-left" transform="matrix(1,0,0,1,0,0)"><path id="SvgjsPath3339" d="M67 82.5c.1-.3.3-.6.5-.8.1-.2.3-.5.5-.7.2-.2.4-.4.7-.6.5-.9 1.7-1.6 2.5-2.1.9-.5 1.8-.9 2.9-.9 1-.2 2.1-.2 2.9.2.4 0 .7.1 1 .3 1.1-.1 2.3.2 3.3.4 1.4.3 2.8.6 4.1 1.2 1.4 0 2.8.1 4.1.5h.2c.1 0 .2.1.2.1h.1c.1 0 .2.1.3.2.1.1 0 .3 0 .4v.1c0 .2 0 .4-.1.6 0 .6-.1 1.1-.5 1.6 0 .1 0 .2-.1.3-.1.5-.2 1.1-.7 1.4-.2.2-.5.3-.8.3-.1 0-.2 0-.3-.1h-.6c-.6.2-1.4 0-1.9-.1-.6-.1-1.2-.3-1.7-.6-1.8-.3-3.5-.8-5.3-1.2-1.6-.4-4-.4-5.4-1.3-.7.1-1.3.2-2 .2-.3 0-.7.1-1.1 0-.2 0-.5 0-.7-.2 0 0-.1 0-.1-.1h-.1l-.4.4c-.3.3-.7.7-1.2.8-.1.2-.3 0-.3-.3z" fill="#2a232b" stroke-width="none" opacity="1"></path><path id="SvgjsPath3340" d="M87.7 83c-.1-.6-.2-1.2-.4-1.7 0-.2.2-.3.3-.1.7 1 .9 2.8.2 3.9-.1.2-.3.1-.3-.1.1-.8.2-1.4.2-2zm-3.4-3.2c1.3.8 2.1 2.6 2.1 4 0 .2-.3.3-.3.1-.2-.7-.4-1.3-.7-1.9-.3-.7-.9-1.2-1.3-1.9-.3-.2 0-.4.2-.3zm-3.3-.7c2.2.8 3.8 3.2 4.2 5.3 0 .2-.2.2-.3.1-.4-1-.9-2-1.7-2.8-.7-.9-1.6-1.4-2.5-2.2-.2-.1.1-.5.3-.4zm-4.9-.8c2.4.6 4.8 2.6 5.8 4.7.1.2-.3.4-.4.2-.8-1-1.6-1.9-2.6-2.7-.9-.7-2-1.2-3-1.8-.2-.1-.1-.4.2-.4zM67.4 82c1.6-1.8 3.8-4.3 6.5-4 .2 0 .2.3 0 .3-2.6.2-4.3 2.5-6.3 3.9-.2.1-.4-.1-.2-.2z" fill="#3a353a" stroke-width="none" opacity="1"></path><path id="SvgjsPath3341" d="M90.9 80.6c-.1-.3-.5-.3-.6 0-.3 1.1-.3 2.4-1.2 3.3-.6.7-1.5.8-2.4.7.3-1.5.2-3.7-.8-4.9-.2-.2-.5-.1-.4.2 0 .8.4 1.6.5 2.4.1.8.2 1.5.2 2.3-.1 0-.2 0-.3-.1-.3-2-1.3-4.1-2.8-5.5 2.3.5 4.6.9 6.9 1.1.1 0 .2-.2.1-.2-2.6-.9-5.3-1.4-8-2-2.4-.5-5.1-1.4-7.6-1.5-2.1-.1-3.6.9-5 2.2-1.5 1.4-3.1 3.1-4.1 4.9l-.2.2c-.1.1-.2.3-.1.4 0 0 0 .1-.1.1-.2.4.3.7.6.4.1 0 .2 0 .3-.1 1.4-.7 2.5-1.4 4.1-1.6 1.3-.2 2.7-.1 4 .1 2.9.4 5.6 1.3 8.3 2.1 2.1.6 4.9 1.7 6.9.2 1.7-1 1.9-3.1 1.7-4.7zm-13.4 1.3c-.5-.1-1.1-.2-1.7-.3.1-1.1-.3-2.3-.8-3.3.7.6 1.4 1.2 2 1.9.6.6.9 1.4 1.5 2-.4-.1-.7-.2-1-.3zM70 79.5c1.2-1.1 2.5-1.7 4-1.9.2.8.6 1.6.7 2.4l.3 1.5c-.3 0-.7-.1-1-.1-.5-.9-1.3-1.8-2.3-2.1-.2-.1-.3.2-.2.4.4.4.9.8 1.3 1.2.1.2.2.3.4.5-1.9-.1-3.8.1-5.4.8.6-1 1.3-1.9 2.2-2.7zm15.2 4.8c-.2-.1-.4-.1-.6-.2-.4-.1-.9-.3-1.3-.4-.8-1.8-2.1-3.6-3.7-4.8-.2-.1-.4.1-.3.2 1.2 1.4 2.2 2.9 3.3 4.4-1.1-.4-2.2-.7-3.2-1.1-.2-1.1-1.2-2.2-1.9-3-.7-.7-1.5-1.4-2.4-1.9.4 0 .8.1 1.3.1 2 .3 4 .8 6 1.2v.1c.7 1.1 1.5 2.2 2.1 3.3.2.7.4 1.4.7 2.1z" fill="#1b141c" stroke-width="none" opacity="1"></path></g></g></g><g id="svga-group-eyebrows-right-move" transform="matrix(1,0,0,1,0,0)"><g id="svga-group-eyebrows-right-rotate" transform="matrix(1,0,0,1,0,0)"><g id="svga-group-eyebrows-right" transform="matrix(1,0,0,1,0,0)"><path id="SvgjsPath3342" d="M133 82.5c-.1-.3-.3-.6-.5-.8-.1-.2-.3-.5-.5-.7-.2-.2-.4-.4-.7-.6-.5-.9-1.7-1.6-2.5-2.1-.9-.5-1.8-.9-2.9-.9-1-.2-2.1-.2-2.9.2-.4 0-.7.1-1 .3-1.1-.1-2.3.2-3.3.4-1.4.3-2.8.6-4.1 1.2-1.4 0-2.8.1-4.1.5h-.2c-.1 0-.2.1-.2.1h-.1c-.1 0-.2.1-.3.2-.1.1 0 .3 0 .4v.1c0 .2 0 .4.1.6 0 .6.1 1.1.5 1.6 0 .1 0 .2.1.3.1.5.2 1.1.7 1.4.2.2.5.3.8.3.1 0 .2 0 .3-.1h.6c.6.2 1.4 0 1.9-.1.6-.1 1.2-.3 1.7-.6 1.8-.3 3.5-.8 5.3-1.2 1.6-.4 4-.4 5.4-1.3.7.1 1.4.2 2 .2.3 0 .7.1 1.1 0 .2 0 .5 0 .7-.2 0 0 .1 0 .1-.1h.1l.4.4c.3.3.7.7 1.2.8.1.2.3 0 .3-.3z" fill="#2a232b" stroke-width="none" opacity="1"></path><path id="SvgjsPath3343" d="M112.3 83c.1-.6.2-1.2.4-1.7 0-.2-.2-.3-.3-.1-.7 1-.9 2.8-.2 3.9.1.2.3.1.3-.1-.1-.8-.2-1.4-.2-2zm3.4-3.2c-1.3.8-2.1 2.6-2.1 4 0 .2.3.3.3.1.2-.7.4-1.3.7-1.9.3-.7.9-1.2 1.3-1.9.3-.2 0-.4-.2-.3zm3.3-.7c-2.2.8-3.8 3.2-4.2 5.3 0 .2.2.2.3.1.4-1 .9-2 1.7-2.8.7-.9 1.6-1.4 2.5-2.2.2-.1-.1-.5-.3-.4zm4.9-.8c-2.4.6-4.8 2.6-5.8 4.7-.1.2.3.4.4.2.8-1 1.6-1.9 2.6-2.7.9-.7 2-1.2 3-1.8.2-.1.1-.4-.2-.4zm8.7 3.7c-1.6-1.8-3.8-4.3-6.5-4-.2 0-.2.3 0 .3 2.6.2 4.3 2.5 6.3 3.9.2.1.4-.1.2-.2z" fill="#3a353a" stroke-width="none" opacity="1"></path><path id="SvgjsPath3344" d="M110.6 85.3c2 1.5 4.8.4 6.9-.2 2.8-.8 5.5-1.8 8.3-2.1 1.3-.2 2.7-.3 4-.1 1.6.2 2.7.9 4.1 1.6.1.1.2.1.3.1.3.3.8 0 .6-.4 0 0 0-.1-.1-.1 0-.1 0-.3-.1-.4l-.2-.2c-1-1.8-2.6-3.5-4.1-4.9-1.4-1.3-2.9-2.3-5-2.2-2.5.1-5.2 1-7.6 1.5-2.7.6-5.4 1.1-8 2-.2.1-.1.2.1.2 2.3-.2 4.6-.6 6.9-1.1-1.5 1.4-2.5 3.5-2.8 5.5-.1 0-.2 0-.3.1.1-.8.1-1.5.2-2.3.1-.8.5-1.6.5-2.4 0-.2-.3-.3-.4-.2-1 1.2-1.1 3.4-.8 4.9-.9.1-1.7 0-2.4-.7-.8-.9-.9-2.2-1.2-3.4-.1-.3-.5-.3-.6 0 0 1.7.2 3.8 1.7 4.8zm10.9-3.2c.5-.6.9-1.4 1.5-2 .6-.7 1.3-1.3 2-1.9-.5 1-.9 2.3-.8 3.3-.6.1-1.2.2-1.7.3-.3.2-.6.3-1 .3zm10.8 0c-1.6-.7-3.6-.9-5.4-.8.1-.2.2-.3.4-.5.4-.5.9-.8 1.3-1.2.1-.1.1-.4-.2-.4-1 .3-1.8 1.2-2.3 2.1-.3 0-.7.1-1 .1l.3-1.5c.2-.8.5-1.6.7-2.4 1.4.2 2.7.8 4 1.9.8.9 1.5 1.8 2.2 2.7zm-16.7.2c.6-1.2 1.4-2.2 2.1-3.3v-.1c2-.4 4-.9 6-1.2.4-.1.9-.1 1.3-.1-.9.5-1.7 1.2-2.4 1.9-.7.8-1.7 1.9-1.9 3-1.1.3-2.2.7-3.2 1.1 1-1.5 2.1-2.9 3.3-4.4.1-.2-.1-.3-.3-.2-1.6 1.2-2.9 3-3.7 4.8-.4.1-.9.3-1.3.4-.2.1-.4.1-.6.2.2-.8.4-1.5.7-2.1z" fill="#1b141c" stroke-width="none" opacity="1"></path></g></g></g><g id="svga-group-beardwrap" transform="matrix(1,0,0,1,0,0)"><g id="svga-group-beard-single-move" transform="matrix(1,0,0,1,0,0)"><g id="svga-group-beard-single" transform="matrix(1,0,0,1,0,0)"></g></g></g><g id="svga-group-mustache-single-move" transform="matrix(1,0,0,1,0,0)"><g id="svga-group-mustache-single" transform="matrix(1,0,0,1,0,0)"></g></g><g id="svga-group-nose-single-move" transform="matrix(1,0,0,1,0,0)"><g id="svga-group-nose-single" transform="matrix(1,0,0,1,0,0)"><path id="SvgjsPath4340" d="M105.06 106.65c.56.92 2.64 3.61 3.09 4.9.45 1.29-.13 3.22-1.48 3.61s-3.61-.39-3.93-.19c-.32.19-1.87 2.06-2.58 1.93-.71-.13-2.64-2.13-3.03-2.13-.39 0-2.13.45-2.97.45-.84 0-2.9-.71-2.64-2.51.26-1.81 2.45-5.54 2.9-6.06.45-.52 1.48-2.32 1.74-3.42s.58-7.03.71-8.38c.13-1.35 1.35-2.97 2.58-3.09 1.23-.13 3.35.77 3.55 2.9.19 2.13.58 6.38.77 8.12.19 1.74.58 2.71 1.29 3.87z" fill="#f0c7b1" stroke-width="none" opacity="1" transform="translate(0 1)" stroke="none"></path><path id="SvgjsPath4341" d="M97.62 85.76c-.84 3.5-.96 7.24-1.34 10.81-.4 3.83-1.14 7.78-1.09 11.63 0 .31.48.39.55.07.78-3.52.88-7.26 1.24-10.84.39-3.82 1.1-7.79.98-11.63 0-.18-.29-.24-.34-.04z" fill="#c27b55" stroke-width="none" opacity="1" transform="translate(0 1)" stroke="none"></path><path id="SvgjsPath4342" d="M94.46 106.19c-1.03 1.37-1.9 2.87-2.65 4.41-.49 1-1.09 2.17-.77 3.32.53 1.89 2.93 2.49 4.5 1.58.47-.27.26-.99-.27-1-.92-.01-1.98.28-2.72-.5-.88-.94-.01-2.63.38-3.57.58-1.39 1.28-2.72 1.83-4.12.07-.19-.2-.26-.3-.12z" fill="#c27b55" stroke-width="none" opacity="1" transform="translate(0 1)" stroke="none"></path><path id="SvgjsPath4343" d="M94.31 113.98c2.84-.21 3.38 3.37 6.07 3.45 2.31.07 2.5-3.41 4.69-3.3.26.01.34-.35.13-.47-2.49-1.47-2.95 2.86-5.24 2.59-1.36-.16-2.32-2.16-3.54-2.73-.83-.39-1.43-.36-2.23.02-.22.09-.11.46.12.44z" fill="#c27b55" stroke-width="none" opacity="1" transform="translate(0 1)" stroke="none"></path><path id="SvgjsPath4344" d="M104.29 115.6c1.87.42 4.05-.16 4.49-2.24.22-1.04-.13-2.07-.67-2.95-.89-1.44-2.03-2.66-2.87-4.15-.14-.25-.49-.12-.51.14-.11 1.67 1.13 2.83 2.02 4.12.82 1.19 1.53 2.83.15 4-.63.54-1.83.44-2.6.59-.26.04-.25.43-.01.49z" fill="#c27b55" stroke-width="none" opacity="1" transform="translate(0 1)" stroke="none"></path><path id="SvgjsPath4345" d="M102.45 109.98c-.41-.74-1.47-.85-2.06-.26-.05.05-.24.29-.3.36-.07.09-.2.26-.23.29-.07.1-.12.21-.18.32l-.12.28c0-.01-.01.01-.03.05-.06.06-.12.13-.18.2-.18.19-.36.38-.5.6-.42.67-.08 1.42.48 1.84.87.65 2.13.13 2.74-.61.76-.89.96-2.03.38-3.07z" fill="#f8d5c3" stroke-width="none" opacity="1" transform="translate(0 1)" stroke="none"></path></g></g><g id="svga-group-hair-front" transform="matrix(1,0,0,1,0,0)"><path id="SvgjsPath6298" d="M95.5 46.3s-.9 4.4 4.2 5 7.8 7.1 3.6 9.4c0 0 6.7-1 6.7-9.4 0 0 3.3 6.9 8.4 5.6 5.1-1.3 6.5 0 6.5 0s-3.1 1.7-.9 6.9 8.5.7 8.5.7 5.8 5.8 1.4 9.1c0 0 1.1-.2 2.5-1.6 0 0-3.4 5.6-1.8 10.1 1.6 4.4 3.6 3.2 3.1 5.2-.6 1.9-4.7 2.7-3.6 5.4s4.4 3.6 4.4 5.2.4 4-1.6 4.8c0 0 3.3.2 4.2-3.8.9-4 0-5-.2-6.9-.2-1.9 3.3-6.6 5.3-6.6s7.3-3.7 6.4-6.7-2.2-3.5-3.3-6.6 2.9-6.4 4.4-5.2c0 0-3.6-5.4-6.9-2.7 0 0-1.3-.4.4-2.7 1.6-2.3.7-9.4-2.7-10.4s-2.7-4.6-4.2-7.9c-1.4-3.3-6.4-3.7-6.4-3.7s1.4-4.6-2-6.9-7.4 1-8.9-.8-.4-3.9-.4-3.9-3.1.2-3.4 1.5c0 0-1.4-1.4-3.1-4.2s-7.6-3.9-11.4-1c0 0-1.6-4-5.8-4s-6.7 1.7-7.4 4c0 0 4.2-3.7 6.4.8s-5.8 2.9-5.4.6c0 0-1.4 2.9-3.3 2.5S87.8 26 86 25.4c-1.8-.6-4.2.2-5.1 2.5s-4.5 5.2-5.8 3.1c-1.3-2.1.9-3.5.9-3.5s-4.4 1.2-4.4 4.4c0 0-4-1.5-6.2 1.4s-.7 6.5-2.4 6.5-2.9-2.3-4.4.6c-1.5 2.9.5 3.8-.9 4.6s-4.4 1.7-4.4 5c0 0-7.8 4-5.5 8.9s5.5 5.4 3.5 7.9-4 0-4.7 2.9c-.7 2.9.9 2.7 0 4.4s-3.5 2.3-4.2 1c0 0 1.3 2.1 2.5 2.5 1.3.4 4.9-2.5 4.9-2.5s-3.5 2.5-3.3 6-.4 5.6 2 5.8 4.2-2.7 6-1.2c1.8 1.5-.7 1 1.5 4.4s3.1 5 2 6.7c-1.1 1.7.2 3.8 1.6 4.2 0 0-1.1-2.3 0-3.7s2.7-3.8 1.5-6.7-2.9-6.8-1.6-9.3 2.5-4.4 2-6.7-.5-.6 0-.8c.5-.2 2.5 2.1 2 5 0 0 2.7-5.4 1.8-8.1-.9-2.7 0-7.1 2-6.2 2 1 5.1 2.4 6.5.5s1.8-5 1.8-5 3.6 2.3.6 5.8c-3.1 3.5.9 7.7.9 7.7s-1.8-2.9 0-5.4 5.4-4.2 4.7-6.9c-.7-2.7-1.4-4.2-1.4-4.2s1.4-4.2 3.8-2.1-.9 5.4-.9 5.4 4.4-.4 5.4-3.7.6-3.7 1.3-6.2c.9-2.3 2.9 1.3 5.5-4.1z" fill="#6b4e40" stroke-width="none" opacity="1" stroke="none"></path><path id="SvgjsPath6299" d="M104.6 52.2c-1.2-.8-2.5-1.2-4-1.4-4.7-.8-4.7-4.5-2.6-7.8.1-.2-.2-.4-.3-.3-1.6 1.7-2.7 4.6-1.5 6.9C98 53 107 51 105.6 56.4c-.1.2.3.5.5.3 1.2-1.7.1-3.4-1.5-4.5zM90.8 35c-2.2-.8-4.4-.6-6.5.4-1.7.9-2.7 2.2-4.7 2.6-4.9 1.1-9.1-2.7-6.5-8.1.1-.2-.2-.3-.3-.2-1.9 3.1-1.6 7.3 2.1 8.9 1.6.7 4 .8 5.6.2 1.5-.5 2.3-1.7 3.6-2.5 2.1-1.2 4.2-1.2 6.5-.9.4.1.5-.3.2-.4zm-3.9 5.9c-1.6 1-3 2.3-4.9 2.7-1.6.3-3.2-.2-4.7.6-1.7.8-2.8 2.6-2.6 4.5.2 2.1 1.8 4 4 4.1 1.9.1 3.4-1.3 3.4-3.2 0-.1-.2-.2-.3 0-.8 4.6-7 1.8-6.1-2.1.6-2.8 3.2-2.8 5.5-2.8 2.5-.1 4.5-1.5 6.2-3.3.1-.3-.2-.7-.5-.5zm32.2-9c-3.2-1-3.8-6.4-7.9-5-1.2.4-2.1 1.5-2.9 2.5-1.9 2.7-2.8 5-6.4 5.7-.2 0-.2.4.1.3 2.9-.1 4.6-1.5 6.1-3.9.6-.9 1.1-2.2 1.9-2.8 3.9-3 4.7.3 6.4 2.1.9.9 1.4 1.3 2.6 1.6.3.1.4-.4.1-.5zm4.5 23c-2.3-.1-4.4.9-6.7.5-3.9-.6-6.5-3.5-6.4-7.5 0-.2-.3-.3-.4 0-.6 2.9.6 5.5 3.1 7.2 1.4.9 3 1.4 4.7 1.5 2.9.2 7.1-2.1 8.7 1.7.1.2.4.1.4-.1.5-2.1-1.4-3.2-3.4-3.3zm27.6 21.4c-.4-.9-.9-1.6-1.5-2.2-1.1-1.2-2.7-2.1-1.6-4.5.4-1 1.7-1.8 2.4-2.5.2-.2-.1-.5-.3-.4-1.8 1-3.8 2.4-3.5 4.8.1.9.6 1.5 1.2 2.2 1.9 2.3 3.6 4.1 1.6 7.2-.2.3.2.6.4.4 1.7-1.1 2.1-3 1.3-5zm-6.1-1.5c-.3-2.6-1.9-4.5-4.2-5.5-.2-.1-.4.2-.2.3 2.4 1.6 4.1 4.3 3.5 7.3-.5 2.2-2.2 3.1-3.3 4.8-.8 1.3-.9 2.6.4 3.5.3.2.7-.2.5-.5-1.2-1.6 2.4-4.9 3-6.5.4-1 .5-2.2.3-3.4zm-25.5-38.5c-1.5 0-3.5 1.3-2.5 2.9.1.1.3.1.3 0 .7-2.1 2.7-2.3 4.3-1 2 1.6.3 3.7-1.2 4.6-2.4 1.5-5 1.3-7.3-.4-.3-.2-.5.2-.3.4 2.7 3.3 10.8 1.8 10.7-3.1 0-2-2.1-3.4-4-3.4zm-41 27.9c.1-.8-.1-1.6-.5-2.3-.6-1.2-3-3-2.9-4 0-.2-.3-.3-.4-.1-.3.9-.2 1.3.3 2 .8 1.3 1.9 1.1 2.5 3 .5 1.8-.7 2.9-1.5 4.3-.9 1.7-1.6 3.6.2 5 .2.2.6-.1.4-.3-2-3 1.7-4.8 1.9-7.6zm6.6-8.6c-.6-1.3-2.3-2.7-3.8-2.2-.2.1-.3.4-.1.5 1.1.5 2.2.6 2.9 1.8.8 1.3.5 2.7-.2 3.9-.2.2.2.5.4.3 1.2-1.2 1.4-2.9.8-4.3zm-11.6-7.5c0-.2-.3-.3-.3-.1-.8 2.2.2 4 1.9 5.5 1.1 1 2.4 1.7 3.5 2.6 1.6 1.3 2.1 2.7 2.5 4.7.1.2.4.2.5 0 1.2-6.2-8.9-6.5-8.1-12.7zm-.2 16.4c-3.4 3-8.8-1.4-9.4-5.1 0-.2-.4-.2-.4.1-.1 2.7 2.1 4.8 4.3 6.1 1.8 1.1 4.8 1.7 6-.7 0-.3-.3-.6-.5-.4zm-9 10.9c-.6-1-1.9-1.6-2.5-2.6-1.1-1.8-1.3-3.9-.8-5.9 0-.2-.2-.3-.3-.1-1 2.4-.8 5 .9 7.1 1.6 2 2.3 1.2 1.5 5.1-.3 1.3-.7 1.7.1 3 .1.2.6.1.5-.2-1-2.2 1.9-4.1.6-6.4zM52 63.7c-1.2-1.7-2.4-2.5-2.8-4.7-.4-2.3.2-4.5 1.7-6.3.2-.3-.2-.7-.4-.4-1.6 1.8-2.5 4-2.2 6.4.1 1 .3 2 .8 2.9 1 2 3.5 3.2 2.9 5.7 0 .2.2.4.4.2 1.1-1.2.6-2.5-.4-3.8zm-3.8 4.7c-1.2.7-1.9 1.6-2.1 3-.2.8-.1 1.6-.1 2.3 0 1.7-1.1 2.2-2.6 2.1-.2 0-.4.3-.2.5 1.1.9 2.7.4 3.4-.8.5-.9.3-1.8.3-2.8 0-1.4.3-3 1.5-3.9.3-.1.1-.5-.2-.4zm4.8 16c-.8.5-2.1 1.4-3.1 1.1-1.9-.4-1.9-2-2-3.6 0-2.7.8-4.9 3.3-6.1.3-.1.1-.5-.2-.5-3.9.6-4.7 5.7-4.1 8.9.6 3.3 5 3.1 6.5.6.2-.2-.2-.5-.4-.4zm6.5 15.4c-.9-2-.1-3.8 0-5.7 0-.8.1-1.2-.3-1.8-.4-.7-1.2-1.1-1.8-1.6-2-1.4-2.1-3.6-1.9-5.9 0-.3-.5-.4-.6-.1-.8 2.8-.5 4.2 1.2 6.4 1.1 1.5 1.8-.2 1.6 4.1 0 .6-.3.9-.3 1.5 0 1.4.8 2.4 1.8 3.3.1.1.3 0 .3-.2zm1.7-51.1c.2-.1 0-.4-.2-.3-2.2.8-5.4 3.2-4.7 5.9.1.6.6.9.8 1.4 1.3 2.9.8 2.4-.5 4.3-1 1.5-1.4 2.8-1.3 4.6 0 .4.6.5.7.1.3-1.8 1.1-3.2 2.2-4.7.6-.8 1.2-1.6 1.1-2.7-.1-.8-.7-1.2-1-1.9-1.7-3.7.9-5 2.9-6.7zM70.4 32c-2.4-.9-4.7.7-5.6 2.9-.5 1.2-.6 2.5-.5 3.8.1.8.2 1.5.3 2.2.4 1.3-.1 2.4-1.6 3.1-.5-.1-1-.2-1.6-.3-.3-.1-.5.4-.2.5 1.6 1.1 3.7.6 4.2-1.4.3-1.5-.5-3.3-.5-4.8 0-3.2 1.9-5.9 5.3-5.5.4 0 .4-.4.2-.5zm27.7-6.9c-1.2-2.7-4.7-3.7-6.9-1.7-.2.2.1.5.3.4 1.9-.9 4.3-.7 5.4 1.2 1.1 1.8.4 4.6-2 4.8-.3 0-.3.4-.1.5 1.2.5 2.3-.1 3-1.2.9-1.2.9-2.7.3-4zm6.9 13.4c-.2-.2-.5.1-.3.3 1 1.4-.5 2.9-1.7 3.2-1.2.3-2.4 0-3.4-.8-1.7-1.4-2-3.8-1.9-5.9 0-.3-.4-.3-.5-.1-.6 3.2.6 7.3 4.3 7.7 2.2.4 5.9-2.2 3.5-4.4zm32.1 13.1c-1-.7-2.1-.9-3.2-.7-1.5.2-2.6.7-4.1.3-2.3-.6-3.3-2.5-3.6-4.8 0-.2-.4-.3-.4 0-.5 2.5.9 4.8 3.2 5.6 1.1.4 2.1.3 3.2.1 1.1-.2 1.9-.7 3.1-.4 2.3.5 3 3.1 1.3 4.8-.4.3.2.8.5.5 2-1.4 1.8-4.1 0-5.4zm-3.3 9.3c0-.3-.5-.4-.6-.1-.7 2.3-2.3 4.6-5 4.5-3.2-.1-4.5-3.1-4.2-5.9 0-.2-.3-.3-.4-.1-1.4 3 .8 6.4 3.9 7 3.2.6 6.6-2.1 6.3-5.4zm-.3 3.5c-.2-.2-.5.1-.3.3 1.3 1.9 3.5 6.5.5 8-.3.1-.1.6.2.6 1.6-.1 2.1-1.7 2.1-3.1-.1-2.3-1-4.2-2.5-5.8zm7.1 21.8c-2.6.8-4.2-2.8-4.8-4.6-.5-1.8-.6-3.7-.3-5.5.1-.3-.4-.5-.5-.1-.8 2.7-.5 5.6.8 8.1.9 1.7 2.9 4.4 5.1 2.9.3-.4.2-1-.3-.8zm.1 4.8c-.1-.2-.4-.2-.4.1.1 2.3.8 4.6.2 6.9-.7 2.9-3 4.7-6.1 4-.4-.1-.7.5-.3.7 2.2 1.3 4.9.1 6.2-1.9 2-2.8 1.5-6.7.4-9.8zm7-34.3c-.5-1.9-1.8-3.2-3.6-3.9-.3-.1-.4.3-.2.5 3 2.1 3.8 5.1 2.1 8.4-.4.8-1.1 2.1-.1 2.6.2.1.4 0 .4-.2V64c0-.1 0-.2-.1-.2-.3-.1 1.4-3.3 1.5-3.8.3-1.1.3-2.3 0-3.3zm-10.5-13.6c-.8-2.1-3.4-4.2-5.6-2.5-.2.1 0 .4.2.3 1.8-.5 3.4.4 4.3 2.1.6 1.2.4 2.5-1 2.9-.7.2-1.7.2-2.4.2-.3 0-.3.4-.1.5 2.5 1 5.8-.5 4.6-3.5zM69.9 54.2c-1.1 2.2-4.1 1.4-4.8-.7-.6-1.9.6-3.8 2.3-4.5.4-.2.1-.9-.3-.8-2.9.7-4.3 4.6-2.4 7 .8 1.1 2.2 1.8 3.6 1.6 1.2-.2 2.4-1 2.2-2.3 0-.4-.4-.6-.6-.3z" fill="#5c3d2e" stroke-width="none" opacity="1" stroke="none"></path><path id="SvgjsPath6300" d="M121.1 52.6c-3.8 2.5-7.3-2.7-8.1-5.8-.1-.5-.8-.2-.7.2.4 2.4 1.6 4.7 3.6 6.1 1.7 1.3 3.9 1.7 5.6 0 .3-.2-.1-.7-.4-.5zm1.2-18c-.5-.2-.8.4-.4.7.9.6 1.7 1.4 2.3 2.3.1.1.1.3.2.4-1.7-2.6-5.3-4.5-8-1.3-.2.2.1.5.3.3 1.8-1.6 4.5-1.2 6.1.4 1.3 1.3 2.6 3.8.9 5.4-.2.2 0 .6.3.5 1.1-.5 1.5-1.4 1.4-2.5.2.1.4 0 .4-.2.5-2.5-1.4-5-3.5-6zm10 .9c-.5-1.7-2.1-2.7-3.8-2.4-.3.1-.2.6.1.5 1.6-.2 3 1.1 3.1 2.7.1 1.5-.9 2.5-1.8 3.6-.2.2.1.6.3.4 1.6-.8 2.6-2.9 2.1-4.8zm5.3 7.5c-.2-.1-.5.2-.2.4 1.1.7 1.7 2 1.8 3.3 0 1.1-.5 2.1-.6 3.2 0 .3.4.4.6.2 1.5-2.1 1-5.9-1.6-7.1zm-4.7 9.8c-1.2-.2-2.4.2-3.5 0-1.3-.3-2.4-1.3-3.2-2.3-.2-.2-.5.1-.3.3.8 1.1 1.6 2.1 2.9 2.6 1.8.7 5.2-.7 5.9 1.8.1.3.5.2.5-.1 0-1.3-1.2-2.1-2.3-2.3zm-.3 7.4c-1.2 1.3-2.6 2.7-4.5 2.8-1.8.1-3.5-1.1-3.8-2.9 0-.2-.4-.2-.4 0 .1 1.9 1.4 3.3 3.3 3.6 2.4.4 4.7-1.3 5.7-3.3.2-.1-.1-.4-.3-.2zm7.2 9.9c-.3-.1-.5.3-.2.5 6.9 3.6-6.5 12.3.1 16.5.2.2.6-.2.4-.4-3.1-4.3 1.8-7.5 2.4-11.7.3-2.3-.5-4.2-2.7-4.9zm7.9-4.8c-2.1.6-4 3.5-2.6 5.6.1.2.6.2.6-.2-.1-1-.2-1.9.2-2.9.4-.9 1.1-1.7 2-2.1.3-.1.1-.5-.2-.4zm-5.8-11.4c-.2-.2-.4 0-.3.3 1.2 2.3 3 4.8 1.4 7.4-.2.3.3.5.5.3 1.8-2.7.2-5.9-1.6-8zm-1.4 1.3c-.2-.1-.4.1-.2.3 1.1.9 1.8 2.2 1.8 3.7 0 .2.3.2.4 0 0-1.6-.7-3.2-2-4zm-37.9-14.9c-.8-.3-1.5-.6-2.1-1.3-.6-.7-.8-1.6-.7-2.5.1-.4-.5-.6-.6-.2-.5 2 .9 4.8 3.3 4.5.3-.1.4-.4.1-.5zm7.3-15.7c-2.3-.9-4.8.8-5.8 2.9-.1.3.3.5.4.3 1.2-1.9 3.1-2.6 5.2-2.7.4 0 .5-.4.2-.5zM129 37.8c-.7-1.5-2-3-3.7-3.4-.2 0-.3.2-.1.3 1.5.8 2.8 1.7 3.6 3.2.1.2.3.1.2-.1zm-15.1-7.5c-.5-1-1.8-1-2.6-.3-.6.6-.9 1.5-1.3 2.2-.6 1-1.2 1.9-1.9 2.9-.2.2.2.5.4.3.9-.8 1.6-1.8 2.2-2.8.3-.5.5-.9.7-1.4.3-.6 1.5-2.1 2.2-.8.1.3.3.1.3-.1zm-9.5 20c-1.2-.5-2.5-.6-3.5-1.4-1.3-1-1.8-2.6-1.4-4.2.1-.3-.4-.5-.5-.1-.6 1.6-.4 3.4.9 4.7 1.9 1.9 5.8 1.2 6.7 4.2.1.2.4.2.4-.1 0-1.5-1.2-2.5-2.6-3.1zM95 43c-.6 3-4.6 3.2-6.4 5.3-.1.2 0 .4.2.3 2.3-1.6 6-2.2 6.6-5.4 0-.3-.4-.5-.4-.2zm-9.8 6c-1-.4-1.9-.7-2.9-1-.4-.1-1.2-.3-1.4-.6 0-.3-.1-.7-.1-1 .1-.2.2-.4.4-.5l.5-.5c.2-.2-.1-.5-.3-.3-.8.6-2.1 1.8-1.1 2.9.4.5 1.2.7 1.7.9 1 .3 2 .6 3 .7.4-.1.5-.5.2-.6zm2.8 3.8c-.1-.2-.4-.2-.4 0-.1 1.7-.1 3.2-.8 4.8-.1.3.3.5.4.2.7-1.4 1.2-3.3.8-5zm-14.4-.3c-.2-.5-.8-.3-.7.2 1.1 4.4 7.8 5.9 7.1 10.8 0 .3.4.4.5.1 1.6-5.1-5.7-7-6.9-11.1zm.5 8.1c-.1-.2-.4-.1-.4.1 0 1.8-1.2 3.7-3.2 3.6-.2 0-.3.3-.1.4 1.2.2 2.2-.2 3-1 .7-.9 1.2-2.1.7-3.1zm-4 .5c-2 .5-3.8.4-5.7-.7-.2-.1-.4.2-.2.3 1.6 1.5 4.2 2 6.1.9.3-.2.1-.6-.2-.5zm14.2-23.6c-2.9 1.9-6.1 2.6-9.4 1.3-.3-.1-.5.4-.2.5 3.3 1.5 7.3 1.1 9.9-1.5.2-.1 0-.4-.3-.3zm-.6-4.2c-1.4.6-2.8.8-4.2 0-.3-.2-.6.3-.3.5 1.4.9 3.4 1.1 4.8-.1.1-.2-.1-.5-.3-.4zm37 17.9c-2.5-.5-4.8-1.6-6.1-4-.1-.2-.4-.1-.4.2 1 2.5 3.5 4.7 6.4 4.3.2-.1.3-.5.1-.5zm.9-2.3c-.5.2-.9.4-1.4.4-.5 0-1-.3-1.3-.7-.2-.2-.6.1-.4.3.8 1 2.7 1.5 3.5.2 0-.1-.2-.3-.4-.2zm19.5 8.8c-.2-.3-.6 0-.5.3.6 1.4.9 2.8 1.2 4.4 0 .2.4.2.5 0 .3-1.7-.3-3.4-1.2-4.7zM52.5 62c-.5-.8-1.2-1.6-1.5-2.4-1.1-2.4-.3-3.7 1-5.4.2-.3-.2-.6-.5-.4-1.3 1.5-2.4 3-1.8 5 .3 1.1 1 2 1.6 2.9 1 1.6 1.6 3.2 2 5 .1.3.5.2.5-.1 0-1.6-.5-3.1-1.3-4.6zm1.7 20.8c-1 .3-2.5.9-3.3-.2-.5-.6-.5-1.6-.4-2.3.2-1.7 1.2-3.2 2.3-4.3.3-.3-.2-.8-.5-.5-1.8 1.6-3.3 4-2.8 6.5.5 2.6 3 2.8 4.9 1.4.2-.2.1-.7-.2-.6zm5.6 6.7c-1.7-1.2-3.3-2.4-2.5-4.7.1-.2-.3-.4-.4-.2-.5 1.2-.6 2.5 0 3.6 1 1.7 3.2 2 4 3.9.1.2.5.2.5-.1.1-1.1-.7-1.8-1.6-2.5zm5.3-17.8c-.3-1.1-1.1-2.1-1.4-3.2-.6-1.9-.2-3.8.5-5.7.1-.2-.3-.5-.5-.3-1.4 1.8-1.8 4-1 6.2.6 1.7 1.8 2.9 1.7 4.8-.1 1.3-.9 2.5-.9 3.9 0 .2.3.2.3 0 .4-1.9 1.8-3.7 1.3-5.7zm43.5-21.4c0-.2-.4-.2-.4.1.1 3.8-.2 8.5-4.6 9.7-.3.1-.2.5.1.4 4.7-.8 5.6-6.1 4.9-10.2zm-38.8-.4c-1.3-.4-2.8.2-3.2 1.5-.4 1.2.1 2.8 1.4 3.2.3.1.5-.3.3-.5-.6-.6-1.1-1.4-.9-2.3.2-.9 1.3-1.5 2.2-1.3.5.2.7-.5.2-.6zm-.4-16.4c-1.6 1.7-2.9 4.3-2.4 6.7.1.2.4.2.4 0 .3-2.4.7-4.4 2.4-6.2.2-.3-.2-.7-.4-.5z" fill="#7a6155" stroke-width="none" opacity="1" stroke="none"></path></g><g id="svga-group-glasses-single-move" transform="matrix(1,0,0,1,0,0)"><g id="svga-group-glasses-single" transform="matrix(1,0,0,1,0,0)"></g></g></g></g></g><rect id="svga-credit-rect" width="200" height="15" x="0" y="185" fill="#ecf0f1" opacity="0.5" style="display: none;"></rect><text id="svga-credit-text" font-family="Avenir Next, Roboto, Helvetica, Arial, sans-serif" font-size="10px" text-anchor="start" font-weight="400" size="10px" anchor="start" weight="400" fill="#333333" x="33.40447998046875" y="182.60824704170227" style="display: none;"><tspan id="SvgjsTspan3125" dy="13" x="33.40447998046875">Created on AvatarMaker.com</tspan></text></g></svg>